<svg width="43" height="57" viewBox="0 0 43 57" fill="none" xmlns="http://www.w3.org/2000/svg">
<path d="M42.1233 15.325L27.1283 0.329977C27.0237 0.225349 26.8995 0.142356 26.7628 0.0857377C26.6261 0.0291195 26.4796 -1.44299e-05 26.3316 5.36165e-09L5.20234 5.36165e-09C2.63634 5.36165e-09 0.548828 2.08751 0.548828 4.65352V52.3465C0.548828 54.9125 2.63634 57 5.20234 57H37.7997C40.3657 57 42.4532 54.9125 42.4532 52.3465V16.1215C42.4532 15.8228 42.3345 15.5363 42.1233 15.325ZM27.4583 3.84628L38.607 14.9948H29.8586C28.535 14.9948 27.4584 13.918 27.4584 12.5943V3.84628H27.4583ZM40.2001 52.3465C40.2001 53.6701 39.1234 54.7469 37.7997 54.7469H5.20234C3.87876 54.7469 2.80189 53.6701 2.80189 52.3465V4.65352C2.80189 3.32994 3.87876 2.25306 5.20234 2.25306H25.2051V12.5946C25.2051 15.1606 27.2925 17.2481 29.8585 17.2481H40.2001V52.3465Z" fill="#2DA9BB"/>
<path d="M30.5117 28.6127H12.4879C11.8658 28.6127 11.3613 29.1171 11.3613 29.7392C11.3613 30.3613 11.8658 30.8657 12.4879 30.8657H30.5117C31.134 30.8657 31.6382 30.3613 31.6382 29.7392C31.6382 29.1171 31.134 28.6127 30.5117 28.6127ZM30.5117 33.6443H12.4879C11.8658 33.6443 11.3613 34.1487 11.3613 34.7708C11.3613 35.3929 11.8658 35.8973 12.4879 35.8973H30.5117C31.134 35.8973 31.6382 35.3929 31.6382 34.7708C31.6382 34.1487 31.134 33.6443 30.5117 33.6443ZM30.5117 38.6758H12.4879C11.8658 38.6758 11.3613 39.1803 11.3613 39.8024C11.3613 40.4245 11.8658 40.9289 12.4879 40.9289H30.5117C31.134 40.9289 31.6382 40.4245 31.6382 39.8024C31.6382 39.1803 31.134 38.6758 30.5117 38.6758ZM24.6539 43.7075H12.4879C11.8658 43.7075 11.3613 44.212 11.3613 44.8341C11.3613 45.4562 11.8658 45.9606 12.4879 45.9606H24.6539C25.2762 45.9606 25.7804 45.4562 25.7804 44.8341C25.7804 44.212 25.2762 43.7075 24.6539 43.7075Z" fill="#2DA9BB"/>
</svg>
