<svg width="29" height="29" viewBox="0 0 29 29" fill="none" xmlns="http://www.w3.org/2000/svg">
<path d="M23.4294 13.4405C23.2371 13.4405 23.0527 13.5169 22.9168 13.6528C22.7808 13.7888 22.7044 13.9732 22.7044 14.1655V21.6837C22.7031 22.6306 22.3264 23.5384 21.6568 24.208C20.9873 24.8776 20.0795 25.2543 19.1326 25.2556H7.31871C6.37179 25.2543 5.46403 24.8776 4.79445 24.208C4.12488 23.5384 3.74815 22.6306 3.74687 21.6837V9.86986C3.74815 8.92294 4.12488 8.01517 4.79445 7.3456C5.46403 6.67603 6.37179 6.2993 7.31871 6.29802H14.837C15.0292 6.29802 15.2136 6.22164 15.3496 6.08567C15.4856 5.94971 15.562 5.7653 15.562 5.57302C15.562 5.38074 15.4856 5.19633 15.3496 5.06037C15.2136 4.92441 15.0292 4.84802 14.837 4.84802H7.31871C5.98744 4.8493 4.71104 5.37863 3.76958 6.31987C2.82811 7.26111 2.29847 8.53738 2.29688 9.86865V21.6825C2.29847 23.0138 2.82811 24.2901 3.76958 25.2313C4.71104 26.1725 5.98744 26.7019 7.31871 26.7032H19.1326C20.4636 26.7016 21.7397 26.1721 22.6809 25.2309C23.6221 24.2897 24.1516 23.0136 24.1532 21.6825V14.1643C24.1532 13.972 24.0768 13.7876 23.9409 13.6516C23.8049 13.5157 23.6205 13.4393 23.4282 13.4393L23.4294 13.4405Z" fill="#2DA9BB"/>
<path d="M25.9802 2.2959H20.1778C19.9855 2.2959 19.8011 2.37228 19.6651 2.50825C19.5292 2.64421 19.4528 2.82862 19.4528 3.0209C19.4528 3.21318 19.5292 3.39759 19.6651 3.53355C19.8011 3.66951 19.9855 3.7459 20.1778 3.7459H24.2305L14.9602 13.015C14.8321 13.1525 14.7624 13.3342 14.7657 13.5221C14.7691 13.7099 14.8451 13.8891 14.978 14.0219C15.1108 14.1548 15.29 14.2308 15.4778 14.2342C15.6657 14.2375 15.8474 14.1678 15.9849 14.0397L25.254 4.77056V8.85956C25.254 9.05185 25.3304 9.23625 25.4663 9.37222C25.6023 9.50818 25.7867 9.58456 25.979 9.58456C26.1713 9.58456 26.3557 9.50818 26.4917 9.37222C26.6276 9.23625 26.704 9.05185 26.704 8.85956V3.0209C26.704 2.82862 26.6276 2.64421 26.4917 2.50825C26.3557 2.37228 26.1725 2.2959 25.9802 2.2959Z" fill="#2DA9BB"/>
</svg>
