<svg width="40" height="40" viewBox="0 0 40 40" fill="none" xmlns="http://www.w3.org/2000/svg">
<path d="M32.2599 8.34778H6.48463C5.64405 8.34778 4.96265 9.29105 4.96265 10.4546V26.9159C4.96265 28.0795 5.64405 29.0228 6.48463 29.0228H32.2599C33.1004 29.0228 33.7818 28.0795 33.7818 26.9159V10.4546C33.7818 9.29105 33.1004 8.34778 32.2599 8.34778Z" fill="#021825" stroke="white" stroke-width="1.032" stroke-linecap="round" stroke-linejoin="round"/>
<path d="M35.1915 11.2676H9.41628C8.57571 11.2676 7.89429 12.2108 7.89429 13.3744V29.8357C7.89429 30.9993 8.57571 31.9426 9.41628 31.9426H35.1915C36.032 31.9426 36.7135 30.9993 36.7135 29.8357V13.3744C36.7135 12.2108 36.032 11.2676 35.1915 11.2676Z" fill="#021825" stroke="white" stroke-width="1.032" stroke-linecap="round" stroke-linejoin="round"/>
<path d="M20.2816 23.662H33.2394" stroke="white" stroke-width="1.032" stroke-linecap="round" stroke-linejoin="round"/>
<path d="M20.2816 19.7183H29.2957" stroke="white" stroke-width="1.032" stroke-linecap="round" stroke-linejoin="round"/>
<path d="M20.2816 27.6056H29.2957" stroke="white" stroke-width="1.032" stroke-linecap="round" stroke-linejoin="round"/>
<path d="M20.2816 15.7747H33.2394" stroke="white" stroke-width="1.032" stroke-linecap="round" stroke-linejoin="round"/>
<rect x="10.7042" y="15.7747" width="6.19718" height="8.4507" stroke="white" stroke-width="1.032" stroke-linecap="round" stroke-linejoin="round"/>
</svg>
