<svg width="206" height="48" viewBox="0 0 206 48" fill="none" xmlns="http://www.w3.org/2000/svg">
<g clip-path="url(#clip0_62_128)">
<path fill-rule="evenodd" clip-rule="evenodd" d="M8.08789 18.9309L21.5559 5.94161L23.8559 8.19538L13.9537 18.0001C12.0178 19.9172 14.2968 22.6477 16.4714 20.4943L26.3866 10.6756L34.3308 18.461H49.0405L45.9632 15.4444C41.4645 11.0352 36.9648 6.62599 32.4661 2.21579C30.2794 0.0732615 28.0145 2.81573 29.9605 4.72185C33.434 8.12585 36.9066 11.5299 40.3802 14.9339H35.7952L21.5759 1L3.04053 18.8762L4.29434 20.1397C9.62858 25.5134 14.9618 30.8871 20.296 36.2618C22.2159 38.1957 24.9923 35.9618 22.8358 33.7895C17.9198 28.8359 13.0038 23.8834 8.08789 18.9309Z" fill="url(#paint0_linear_62_128)"/>
<path fill-rule="evenodd" clip-rule="evenodd" d="M40.2962 47.277C43.612 43.9407 46.9287 40.6044 50.2445 37.2681C52.3997 35.1006 49.7027 32.7931 47.7843 34.723C44.4685 38.0593 41.1518 41.3956 37.836 44.7319C35.6818 46.8994 38.3788 49.2068 40.2962 47.277Z" fill="#FFFEFE"/>
<path fill-rule="evenodd" clip-rule="evenodd" d="M37.805 3.20838C41.1398 6.54329 44.4746 9.87821 47.8094 13.2131C49.9561 15.3598 52.2067 12.6378 50.2957 10.7268C46.9609 7.39187 43.6261 4.05696 40.2913 0.722051C38.3793 -1.18899 35.6574 1.06069 37.805 3.20838Z" fill="#FFFEFE"/>
<path fill-rule="evenodd" clip-rule="evenodd" d="M35.2248 33.0026H40.26L30.0258 43.4563C28.3856 45.1314 31.0634 47.4936 32.4742 46.0527L48.7163 29.4619H33.7383L20.9992 42.0214C15.0154 36.2512 9.03269 30.4809 3.04895 24.7096C1.07595 22.8062 -1.67878 25.1025 0.538959 27.2403C6.94541 33.4184 13.3519 39.5975 19.7583 45.7756L21.0275 47L35.2248 33.0026Z" fill="url(#paint1_linear_62_128)"/>
<path fill-rule="evenodd" clip-rule="evenodd" d="M0.42944 37.238C3.77149 40.5852 7.11355 43.9323 10.4556 47.2795C12.3518 49.1786 15.068 46.9599 12.9382 44.8265C9.59618 41.4793 6.25413 38.1322 2.91208 34.785C0.782273 32.6516 -1.4658 35.3389 0.42944 37.238Z" fill="#FFFEFE"/>
<path fill-rule="evenodd" clip-rule="evenodd" d="M3.06026 14.2558C6.67765 10.6061 10.295 6.95645 13.9124 3.3068C16.1055 1.09414 13.3247 -1.22568 11.3724 0.744076C7.75497 4.39373 4.13758 8.04339 0.520195 11.693C-1.6729 13.9067 1.10792 16.2255 3.06026 14.2558Z" fill="#FFFEFE"/>
<path d="M62.3037 23V13C62.4861 13.0138 62.6466 13.0277 62.7852 13.0406C62.9238 13.0544 63.0614 13.0646 63.1979 13.0729C63.3355 13.0811 63.4491 13.0858 63.5408 13.0858C63.6325 13.0858 63.7482 13.0811 63.891 13.0729C64.0338 13.0646 64.1724 13.0535 64.3058 13.0406C64.4402 13.0277 64.5987 13.0138 64.781 13V16.957C66.1505 17.005 66.9916 17.028 67.3042 17.028C67.5564 17.028 68.3986 17.005 69.8305 16.957V13C70.0129 13.0138 70.1703 13.0277 70.3037 13.0406C70.4371 13.0544 70.5726 13.0646 70.7112 13.0729C70.8498 13.0811 70.9624 13.0858 71.051 13.0858C71.151 13.0858 71.274 13.0802 71.4199 13.071C71.5658 13.0609 71.7034 13.0507 71.8337 13.0387C71.964 13.0267 72.1203 13.0138 72.3037 13V23C72.1714 22.9954 71.9671 22.9843 71.6888 22.9686C71.4105 22.9511 71.1969 22.9437 71.0499 22.9437C70.9217 22.9437 70.7206 22.952 70.4455 22.9686C70.1714 22.9852 69.966 22.9954 69.8295 23V18.1236C68.6841 18.0848 67.8431 18.0664 67.3032 18.0664C66.7175 18.0664 65.8764 18.0858 64.78 18.1236V23C64.6372 22.9954 64.4298 22.9843 64.1578 22.9686C63.8847 22.9511 63.6784 22.9437 63.5387 22.9437C63.4012 22.9437 63.1958 22.952 62.9217 22.9686C62.6497 22.9843 62.4434 22.9954 62.3037 23Z" fill="white"/>
<path d="M78.5039 14.0337V23C78.3743 22.9954 78.1791 22.9843 77.9151 22.9686C77.6521 22.9511 77.4598 22.9437 77.3391 22.9437C77.2126 22.9437 77.0192 22.952 76.7582 22.9686C76.4972 22.9852 76.3029 22.9954 76.1734 23V14.0337C75.3247 14.0337 74.3601 14.102 73.2837 14.2403C73.3337 13.8963 73.3592 13.6861 73.3592 13.6132C73.3592 13.5441 73.3337 13.3394 73.2837 13H81.2837C81.268 13.0904 81.2543 13.1678 81.2395 13.2315C81.2258 13.2951 81.215 13.3643 81.2062 13.4371C81.1973 13.509 81.1924 13.5681 81.1924 13.6132C81.1924 13.6603 81.1973 13.7211 81.2062 13.7958C81.215 13.8714 81.2268 13.9406 81.2395 14.007C81.2543 14.0725 81.268 14.1499 81.2837 14.2403C80.065 14.102 79.1387 14.0337 78.5039 14.0337Z" fill="white"/>
<path d="M91.4117 23.465H91.3965H88.1646C86.8838 23.465 85.8818 23.4679 85.1578 23.4728C84.4337 23.4805 83.809 23.497 83.2837 23.5251V13C83.4196 13 83.6204 13.0097 83.8871 13.0291C84.1538 13.0494 84.3536 13.0591 84.4874 13.0591C84.6233 13.0591 84.8241 13.0494 85.0918 13.0291C85.3586 13.0087 85.5593 13 85.6952 13V22.3447H85.6871C85.6871 22.3476 85.965 22.3553 86.5227 22.367C87.1322 22.3825 87.6788 22.3892 88.1646 22.3892C88.6463 22.3892 89.1888 22.3815 89.7912 22.367C90.3409 22.3544 90.6147 22.3466 90.6147 22.3447H90.6065V13C90.7394 13 90.9392 13.0097 91.2059 13.0291C91.4736 13.0494 91.6693 13.0591 91.7941 13.0591C91.9381 13.0591 92.1449 13.0494 92.4137 13.0291C92.6834 13.0087 92.8832 13 93.014 13V22.3592H94.2837C94.2188 22.6819 94.1853 22.9572 94.1853 23.1869C94.1853 23.4321 94.2178 23.7025 94.2837 24H94.0454C93.8547 23.7703 93.5464 23.6269 93.1195 23.5697C92.6946 23.5125 92.1257 23.4776 91.4117 23.465Z" fill="white"/>
<path d="M112.969 21.9287L113.187 22.0188L112.822 23.3402C111.886 23.7801 110.79 24 109.533 24C108.655 24 107.833 23.8789 107.068 23.6367C106.305 23.3945 105.64 23.0447 105.072 22.5875C104.504 22.1302 104.064 21.5818 103.752 20.9424C103.439 20.302 103.284 19.5967 103.284 18.8275C103.284 17.8528 103.454 16.9954 103.793 16.2562C104.134 15.5151 104.606 14.9057 105.212 14.4261C105.817 13.9465 106.517 13.589 107.313 13.3536C108.109 13.1172 108.97 13 109.899 13C110.466 13 111.058 13.0659 111.675 13.1976C112.29 13.3304 112.827 13.5154 113.284 13.7518C113.222 13.9843 113.155 14.2566 113.083 14.5685C113.012 14.8805 112.952 15.1343 112.903 15.329H112.672C112.357 14.9047 111.95 14.5637 111.449 14.306C110.947 14.0483 110.436 13.9213 109.913 13.9213C109.251 13.9213 108.673 14.0531 108.18 14.3176C107.687 14.5821 107.281 14.9435 106.964 15.3978C106.646 15.8541 106.414 16.356 106.264 16.9063C106.115 17.4546 106.041 18.0243 106.041 18.6143C106.041 19.493 106.195 20.27 106.501 20.9434C106.808 21.6177 107.259 22.1418 107.855 22.5167C108.451 22.8917 109.164 23.0786 109.995 23.0786C110.495 23.0786 111.021 22.9711 111.573 22.7551C112.125 22.538 112.589 22.2619 112.969 21.9287Z" fill="white"/>
<path d="M114.284 23V13C115.349 13.0074 116.26 13.0101 117.015 13.0101C117.77 13.0129 118.525 13.0138 119.284 13.0138C121.198 13.0138 122.865 13.0092 124.284 13V23C124.151 22.9954 123.947 22.9843 123.669 22.9686C123.391 22.9511 123.177 22.9437 123.03 22.9437C122.902 22.9437 122.701 22.952 122.426 22.9686C122.152 22.9852 121.946 22.9954 121.81 23V14.0946C120.953 14.066 120.11 14.0513 119.284 14.0513C118.424 14.0513 117.583 14.066 116.761 14.0946V23C116.618 22.9954 116.411 22.9843 116.139 22.9686C115.866 22.9511 115.659 22.9437 115.52 22.9437C115.382 22.9437 115.177 22.952 114.903 22.9686C114.63 22.9843 114.423 22.9954 114.284 23Z" fill="white"/>
<path d="M126.284 13H132.284C132.229 13.358 132.203 13.5685 132.203 13.6306C132.203 13.6928 132.229 13.9033 132.284 14.2622C131.18 14.1268 129.965 14.0572 128.642 14.0572V17.227H130.29C130.732 17.227 131.376 17.1825 132.222 17.0944C132.168 17.3949 132.141 17.6008 132.141 17.7111C132.141 17.8104 132.168 18.0227 132.222 18.3455C131.611 18.2666 130.967 18.2277 130.29 18.2277H128.642V21.9419C129.965 21.9419 131.18 21.8742 132.284 21.7369C132.229 22.0958 132.203 22.3063 132.203 22.3685C132.203 22.4306 132.229 22.6411 132.284 23H126.284V13Z" fill="white"/>
<path d="M142.412 23.465H142.397H139.165C137.884 23.465 136.882 23.4679 136.158 23.4728C135.434 23.4805 134.809 23.497 134.284 23.5251V13C134.42 13 134.62 13.0097 134.887 13.0291C135.154 13.0494 135.354 13.0591 135.487 13.0591C135.623 13.0591 135.824 13.0494 136.092 13.0291C136.359 13.0087 136.559 13 136.695 13V22.3447H136.687C136.687 22.3476 136.965 22.3553 137.523 22.367C138.132 22.3825 138.679 22.3892 139.165 22.3892C139.646 22.3892 140.189 22.3815 140.791 22.367C141.341 22.3544 141.615 22.3466 141.615 22.3447H141.607V13C141.739 13 141.939 13.0097 142.206 13.0291C142.474 13.0494 142.669 13.0591 142.794 13.0591C142.938 13.0591 143.145 13.0494 143.414 13.0291C143.683 13.0087 143.883 13 144.014 13V22.3592H145.284C145.219 22.6819 145.185 22.9572 145.185 23.1869C145.185 23.4321 145.218 23.7025 145.284 24H145.045C144.855 23.7703 144.546 23.6269 144.119 23.5697C143.695 23.5125 143.126 23.4776 142.412 23.465Z" fill="white"/>
<path d="M147.284 23V13C148.349 13.0074 149.26 13.0101 150.015 13.0101C150.77 13.0129 151.525 13.0138 152.284 13.0138C154.198 13.0138 155.865 13.0092 157.284 13V23C157.151 22.9954 156.947 22.9843 156.669 22.9686C156.391 22.9511 156.177 22.9437 156.03 22.9437C155.902 22.9437 155.701 22.952 155.426 22.9686C155.152 22.9852 154.946 22.9954 154.81 23V14.0946C153.953 14.066 153.11 14.0513 152.284 14.0513C151.424 14.0513 150.583 14.066 149.761 14.0946V23C149.618 22.9954 149.411 22.9843 149.139 22.9686C148.866 22.9511 148.659 22.9437 148.52 22.9437C148.382 22.9437 148.177 22.952 147.903 22.9686C147.63 22.9843 147.423 22.9954 147.284 23Z" fill="white"/>
<path d="M161.57 18.6368V23C161.438 22.9954 161.247 22.9843 160.996 22.9686C160.744 22.9511 160.554 22.9437 160.425 22.9437C160.293 22.9437 160.103 22.952 159.852 22.9686C159.602 22.9852 159.413 22.9954 159.284 23V13H163.029C164.097 13 164.906 13.2066 165.457 13.6179C166.008 14.0302 166.284 14.6471 166.284 15.467C166.284 16.2924 166.09 16.9389 165.701 17.4075C165.312 17.876 164.774 18.1969 164.085 18.374C163.4 18.5492 162.561 18.6368 161.57 18.6368ZM161.57 13.8014V17.8169C162.016 17.7976 162.35 17.7644 162.573 17.7173C163.038 17.5937 163.382 17.354 163.601 16.9998C163.82 16.6438 163.93 16.2214 163.93 15.7317C163.93 15.1618 163.794 14.6969 163.523 14.3391C163.252 13.9813 162.914 13.8024 162.514 13.8024L161.57 13.8014Z" fill="white"/>
<path d="M179.284 18.4617C179.284 19.2106 179.141 19.9197 178.857 20.5881C178.574 21.2575 178.161 21.8494 177.619 22.3638C177.077 22.8782 176.421 23.2793 175.651 23.5679C174.881 23.8566 174.028 24 173.096 24C171.938 24 170.921 23.7849 170.043 23.3558C169.165 22.9266 168.486 22.2989 168.005 21.4745C167.525 20.6482 167.284 19.6649 167.284 18.5208C167.284 17.7565 167.424 17.0396 167.702 16.3673C167.98 15.696 168.387 15.107 168.923 14.6013C169.457 14.0966 170.109 13.7023 170.878 13.4214C171.646 13.1405 172.51 13 173.471 13C174.536 13 175.447 13.1637 176.203 13.4921C176.957 13.8205 177.558 14.2516 178.006 14.7863C178.453 15.3211 178.776 15.9023 178.976 16.5339C179.177 17.1646 179.278 17.8069 179.284 18.4617ZM173.365 13.9222C172.634 13.9222 172.01 14.1044 171.492 14.4705C170.975 14.8358 170.578 15.3947 170.304 16.1474C170.029 16.9001 169.892 17.8398 169.892 18.9655C169.892 19.6746 170.007 20.343 170.237 20.9688C170.467 21.5956 170.829 22.1042 171.322 22.4926C171.815 22.8821 172.433 23.0778 173.174 23.0778C173.94 23.0778 174.589 22.854 175.117 22.4055C175.647 21.9579 176.039 21.3602 176.295 20.6114C176.55 19.8645 176.678 19.0498 176.678 18.1682C176.678 17.649 176.615 17.1404 176.488 16.6444C176.363 16.1465 176.164 15.6921 175.894 15.2775C175.625 14.8629 175.278 14.5325 174.853 14.2884C174.428 14.0443 173.932 13.9222 173.365 13.9222Z" fill="white"/>
<path d="M181.284 13H187.284C187.229 13.358 187.203 13.5685 187.203 13.6306C187.203 13.6928 187.229 13.9033 187.284 14.2622C186.18 14.1268 184.965 14.0572 183.642 14.0572V17.227H185.29C185.732 17.227 186.376 17.1825 187.222 17.0944C187.168 17.3949 187.141 17.6008 187.141 17.7111C187.141 17.8104 187.168 18.0227 187.222 18.3455C186.611 18.2666 185.967 18.2277 185.29 18.2277H183.642V21.9419C184.965 21.9419 186.18 21.8742 187.284 21.7369C187.229 22.0958 187.203 22.3063 187.203 22.3685C187.203 22.4306 187.229 22.6411 187.284 23H181.284V13Z" fill="white"/>
<path d="M189.284 23V13C189.336 13.0018 189.517 13.0175 189.828 13.0443C190.139 13.071 190.377 13.0858 190.54 13.0858C190.633 13.0858 190.751 13.0811 190.896 13.0729C191.041 13.0646 191.181 13.0535 191.317 13.0406C191.454 13.0277 191.614 13.0138 191.8 13V17.5703C193.284 16.0847 194.736 14.5612 196.158 13C196.283 13.0138 196.394 13.0277 196.491 13.0406C196.588 13.0544 196.69 13.0646 196.796 13.0729C196.901 13.0811 196.991 13.0858 197.061 13.0858C197.171 13.0858 197.341 13.071 197.568 13.0443C197.798 13.0175 197.925 13.0018 197.949 13V13.1134C197.184 13.7479 196.385 14.4616 195.551 15.2529C194.716 16.0441 194.068 16.6804 193.606 17.1599L198.284 22.811V22.9991C198.137 22.9945 197.895 22.9834 197.559 22.9677C197.224 22.9502 196.99 22.9428 196.859 22.9428C196.712 22.9428 196.472 22.9511 196.137 22.9677C195.803 22.9843 195.568 22.9945 195.431 22.9991L191.796 18.3716V22.9991C191.651 22.9945 191.441 22.9834 191.165 22.9677C190.887 22.9502 190.678 22.9428 190.536 22.9428C190.399 22.9428 190.194 22.9511 189.92 22.9677C189.649 22.9843 189.435 22.9954 189.284 23Z" fill="white"/>
<path d="M203.504 14.0337V23C203.374 22.9954 203.179 22.9843 202.915 22.9686C202.652 22.9511 202.46 22.9437 202.339 22.9437C202.213 22.9437 202.019 22.952 201.758 22.9686C201.497 22.9852 201.303 22.9954 201.173 23V14.0337C200.325 14.0337 199.36 14.102 198.284 14.2403C198.334 13.8963 198.359 13.6861 198.359 13.6132C198.359 13.5441 198.334 13.3394 198.284 13H206.284C206.268 13.0904 206.254 13.1678 206.24 13.2315C206.226 13.2951 206.215 13.3643 206.206 13.4371C206.197 13.509 206.192 13.5681 206.192 13.6132C206.192 13.6603 206.197 13.7211 206.206 13.7958C206.215 13.8714 206.227 13.9406 206.24 14.007C206.254 14.0725 206.268 14.1499 206.284 14.2403C205.066 14.102 204.139 14.0337 203.504 14.0337Z" fill="white"/>
<path d="M62.0509 34.7428L62.7006 32.0877C62.8772 31.3639 63.4503 31.002 64.4211 31H65.8177C65.8819 31 65.9348 31.0254 65.9773 31.0783C66.0198 31.1301 66.0405 31.1901 66.0405 31.2592V34.7438C66.0405 34.816 66.0169 34.877 65.9678 34.9268C65.9197 34.9756 65.8621 35 65.7941 35H65.3078C65.2369 35 65.1784 34.9756 65.1321 34.9268C65.0859 34.877 65.0641 34.815 65.0641 34.7377V34.0353H63.2294L63.0537 34.7388C63.0358 34.815 62.9971 34.878 62.9367 34.9268C62.8762 34.9756 62.8111 35 62.744 35H62.2303C62.1633 35 62.1113 34.9756 62.0774 34.9248C62.0528 34.8892 62.0405 34.8516 62.0405 34.8089C62.0424 34.7886 62.0462 34.7662 62.0509 34.7428ZM63.4249 33.2445H65.0641V31.7878H64.3285C64.1633 31.7878 64.0188 31.8386 63.8961 31.9403C63.7723 32.0419 63.6893 32.1781 63.6468 32.3489L63.4249 33.2445Z" fill="white"/>
<path d="M70 34.732V31.27C70 31.198 70.0245 31.134 70.0746 31.0802C70.1257 31.0264 70.1856 31 70.2563 31H70.7629C70.8326 31 70.8925 31.0264 70.9426 31.0802C70.9917 31.134 71.0162 31.197 71.0162 31.27V32.602H71.5955C71.7536 32.602 71.892 32.5574 72.0118 32.468C72.1316 32.3797 72.2445 32.2355 72.3525 32.0376L72.7707 31.27C72.866 31.0914 72.9956 31.001 73.1586 31H73.7811C73.8517 31 73.893 31.0254 73.9057 31.0772C73.9087 31.0904 73.9107 31.1025 73.9107 31.1157C73.9107 31.1584 73.8949 31.2102 73.8655 31.269L73.2803 32.3624C73.1959 32.5218 73.1006 32.6538 72.9966 32.7584C72.8915 32.8629 72.7541 32.936 72.5852 32.9787C72.704 33.0041 72.8257 33.0822 72.9504 33.2102C73.0751 33.3381 73.1851 33.4782 73.2803 33.6284L73.9539 34.7381C73.9843 34.7919 74 34.8386 74 34.8772C74 34.8944 73.9971 34.9096 73.9921 34.9249C73.9735 34.9756 73.9303 35 73.8596 35H73.243C73.1733 35 73.0977 34.9746 73.0172 34.9239C72.9357 34.8721 72.8738 34.8112 72.8287 34.7381L72.3544 33.9604C72.2415 33.7706 72.1276 33.6284 72.0128 33.533C71.8979 33.4365 71.7595 33.3888 71.5974 33.3888H71.0182V34.7431C71.0182 34.8152 70.9936 34.8761 70.9445 34.9259C70.8945 34.9746 70.8355 34.999 70.7649 34.999H70.2563C70.1865 34.999 70.1257 34.9726 70.0746 34.9198C70.0245 34.868 70 34.8041 70 34.732Z" fill="white"/>
<path d="M77 34.7377V31.2592C77 31.187 77.0224 31.126 77.068 31.0752C77.1145 31.0244 77.1691 31 77.2335 31H77.6951C77.7587 31 77.8132 31.0254 77.8589 31.0783C77.9036 31.1301 77.926 31.1921 77.926 31.2653V34.2102H79.5757V31.2592C79.5757 31.187 79.5981 31.126 79.6428 31.0752C79.6884 31.0244 79.7421 31 79.8065 31H80.2709C80.3344 31 80.389 31.0254 80.4346 31.0783C80.4793 31.1301 80.5017 31.1921 80.5017 31.2653V34.2102H80.7674C80.8309 34.2102 80.8855 34.2356 80.932 34.2884C80.9776 34.3403 81 34.4023 81 34.4755V34.7377C81 34.8099 80.9776 34.8719 80.932 34.9238C80.8855 34.9746 80.8318 35 80.7674 35H77.2353C77.1718 35 77.1163 34.9746 77.0698 34.9238C77.0233 34.8719 77 34.8099 77 34.7377Z" fill="white"/>
<path d="M85 34.7377V31.2653C85 31.1891 85.0246 31.126 85.0748 31.0752C85.125 31.0244 85.188 31 85.2638 31H85.7549C85.8278 31 85.8898 31.0244 85.94 31.0752C85.9902 31.126 86.0167 31.186 86.0167 31.2592V34.0516L87.5689 31.2653C87.6102 31.1931 87.6683 31.1301 87.7402 31.0783C87.813 31.0254 87.8809 31 87.9419 31H88.747C88.8169 31 88.878 31.0254 88.9272 31.0783C88.9764 31.1301 89 31.1921 89 31.2653V34.7377C89 34.8099 88.9744 34.8719 88.9222 34.9238C88.8701 34.9746 88.8081 35 88.7362 35H88.2451C88.1732 35 88.1102 34.9746 88.06 34.9238C88.0089 34.8719 87.9833 34.8109 87.9833 34.7377V32.1497L86.56 34.7377C86.5177 34.8099 86.4587 34.8719 86.3819 34.9238C86.3061 34.9746 86.2323 35 86.1614 35H85.2579C85.188 35 85.126 34.9746 85.0748 34.9238C85.0256 34.8719 85 34.8099 85 34.7377Z" fill="white"/>
<path d="M92.5089 34.5212C92.1693 34.2023 92 33.6943 92 33C92 32.3057 92.1703 31.7986 92.5089 31.4788C92.8476 31.1589 93.3466 31 94.0005 31C94.6561 31 95.1524 31.1599 95.4911 31.4788C95.8297 31.7977 96 32.3057 96 33C96 33.6943 95.8297 34.2014 95.4911 34.5212C95.1524 34.8411 94.6552 35 94.0005 35C93.3466 35 92.8485 34.8401 92.5089 34.5212ZM93.189 32.0444C93.0206 32.2589 92.9373 32.5778 92.9373 33.001C92.9373 33.4261 93.0215 33.744 93.189 33.9566C93.3575 34.1711 93.6273 34.2774 94.0005 34.2774C94.3745 34.2774 94.6452 34.1711 94.8119 33.9566C94.9794 33.7431 95.0618 33.4252 95.0618 33.001C95.0618 32.5768 94.9785 32.2579 94.8119 32.0444C94.6452 31.8308 94.3745 31.7226 94.0005 31.7226C93.6273 31.7216 93.3575 31.8298 93.189 32.0444Z" fill="white"/>
<path d="M100 34.7377V31.2653C100 31.1931 100.025 31.1301 100.077 31.0783C100.129 31.0254 100.192 31 100.268 31H100.785C100.856 31 100.918 31.0254 100.97 31.0783C101.02 31.1301 101.046 31.1921 101.046 31.2653V32.5197H102.954V31.2653C102.954 31.1931 102.98 31.1301 103.032 31.0783C103.084 31.0254 103.146 31 103.218 31H103.734C103.81 31 103.874 31.0254 103.924 31.0783C103.975 31.1301 104 31.1921 104 31.2653V34.7377C104 34.8099 103.974 34.8719 103.921 34.9238C103.869 34.9746 103.806 35 103.733 35H103.217C103.146 35 103.083 34.9756 103.031 34.9268C102.979 34.877 102.953 34.817 102.953 34.7438V33.3095H101.044V34.7438C101.044 34.816 101.019 34.877 100.969 34.9268C100.917 34.9756 100.856 35 100.784 35H100.267C100.195 35 100.132 34.9746 100.078 34.9238C100.026 34.8719 100 34.8099 100 34.7377Z" fill="white"/>
<path d="M108 34.7297V31.2591C108 31.1869 108.027 31.126 108.083 31.0752C108.139 31.0244 108.205 31 108.284 31H111.72C111.797 31 111.863 31.0254 111.919 31.0782C111.973 31.13 112 31.192 112 31.2652V31.5273C112 31.5994 111.973 31.6624 111.919 31.7132C111.863 31.765 111.798 31.7894 111.72 31.7894H109.123V32.5982H111.359C111.436 32.5982 111.502 32.6236 111.558 32.6754C111.612 32.7262 111.639 32.7882 111.639 32.8613V33.1245C111.639 33.1966 111.612 33.2596 111.558 33.3114C111.502 33.3622 111.437 33.3876 111.359 33.3876H109.123V34.2106H111.713C111.79 34.2106 111.857 34.2349 111.909 34.2857C111.962 34.3355 111.988 34.3965 111.988 34.4696V34.7379C111.988 34.81 111.961 34.872 111.904 34.9238C111.849 34.9746 111.783 35 111.705 35H108.284C108.206 35 108.139 34.9746 108.083 34.9238C108.028 34.87 108 34.8059 108 34.7297Z" fill="white"/>
<path d="M115 34.7387V31.2654C115 31.1932 115.024 31.1301 115.074 31.0783C115.123 31.0254 115.183 31 115.255 31H117.345C118.447 31 118.999 31.5186 119 32.5547C119.001 33.5928 118.449 34.1103 117.345 34.1103H116.032V34.7377C116.032 34.8099 116.007 34.8719 115.957 34.9237C115.906 34.9746 115.847 35 115.775 35H115.26C115.189 35 115.127 34.9746 115.075 34.9237C115.025 34.8729 115 34.8109 115 34.7387ZM116.032 33.3213H117.031C117.339 33.3213 117.571 33.2684 117.73 33.1637C117.889 33.059 117.968 32.8556 117.968 32.5547C117.968 32.2547 117.889 32.0524 117.73 31.9466C117.571 31.8409 117.338 31.789 117.031 31.789H116.032V33.3213Z" fill="white"/>
<path d="M122 34.7377V31.2653C122 31.1931 122.025 31.1301 122.077 31.0783C122.129 31.0254 122.192 31 122.268 31H122.785C122.856 31 122.918 31.0254 122.97 31.0783C123.02 31.1301 123.046 31.1921 123.046 31.2653V32.5197H124.954V31.2653C124.954 31.1931 124.98 31.1301 125.032 31.0783C125.084 31.0254 125.146 31 125.218 31H125.734C125.81 31 125.874 31.0254 125.924 31.0783C125.975 31.1301 126 31.1921 126 31.2653V34.7377C126 34.8099 125.974 34.8719 125.921 34.9238C125.869 34.9746 125.806 35 125.733 35H125.217C125.146 35 125.083 34.9756 125.031 34.9268C124.979 34.877 124.953 34.817 124.953 34.7438V33.3095H123.044V34.7438C123.044 34.816 123.019 34.877 122.969 34.9268C122.917 34.9756 122.856 35 122.784 35H122.267C122.195 35 122.132 34.9746 122.078 34.9238C122.026 34.8719 122 34.8099 122 34.7377Z" fill="white"/>
<path d="M129.509 34.5212C129.169 34.2023 129 33.6943 129 33C129 32.3057 129.17 31.7986 129.509 31.4788C129.848 31.1589 130.347 31 131 31C131.656 31 132.152 31.1599 132.491 31.4788C132.83 31.7977 133 32.3057 133 33C133 33.6943 132.83 34.2014 132.491 34.5212C132.152 34.8411 131.655 35 131 35C130.346 35 129.849 34.8401 129.509 34.5212ZM130.189 32.0444C130.021 32.2589 129.937 32.5778 129.937 33.001C129.937 33.4261 130.022 33.744 130.189 33.9566C130.357 34.1711 130.627 34.2774 131 34.2774C131.374 34.2774 131.645 34.1711 131.812 33.9566C131.979 33.7431 132.062 33.4252 132.062 33.001C132.062 32.5768 131.978 32.2579 131.812 32.0444C131.645 31.8308 131.374 31.7226 131 31.7226C130.627 31.7216 130.357 31.8298 130.189 32.0444Z" fill="white"/>
<path d="M137 34.7297V31.2591C137 31.1869 137.027 31.126 137.083 31.0752C137.139 31.0244 137.205 31 137.284 31H140.72C140.797 31 140.863 31.0254 140.919 31.0782C140.973 31.13 141 31.192 141 31.2652V31.5273C141 31.5994 140.973 31.6624 140.919 31.7132C140.863 31.765 140.798 31.7894 140.72 31.7894H138.123V32.5982H140.359C140.436 32.5982 140.502 32.6236 140.558 32.6754C140.612 32.7262 140.639 32.7882 140.639 32.8613V33.1245C140.639 33.1966 140.612 33.2596 140.558 33.3114C140.502 33.3622 140.437 33.3876 140.359 33.3876H138.123V34.2106H140.713C140.79 34.2106 140.857 34.2349 140.909 34.2857C140.962 34.3355 140.988 34.3965 140.988 34.4696V34.7379C140.988 34.81 140.961 34.872 140.904 34.9238C140.849 34.9746 140.783 35 140.705 35H137.284C137.206 35 137.139 34.9746 137.083 34.9238C137.028 34.87 137 34.8059 137 34.7297Z" fill="white"/>
<path d="M149.509 34.5212C149.169 34.2023 149 33.6943 149 33C149 32.3057 149.17 31.7986 149.509 31.4788C149.848 31.1589 150.347 31 151 31C151.656 31 152.152 31.1599 152.491 31.4788C152.83 31.7977 153 32.3057 153 33C153 33.6943 152.83 34.2014 152.491 34.5212C152.152 34.8411 151.655 35 151 35C150.347 35 149.849 34.8401 149.509 34.5212ZM150.189 32.0444C150.021 32.2589 149.937 32.5778 149.937 33.001C149.937 33.4261 150.022 33.744 150.189 33.9566C150.357 34.1711 150.627 34.2774 151 34.2774C151.374 34.2774 151.645 34.1711 151.812 33.9566C151.979 33.7431 152.062 33.4252 152.062 33.001C152.062 32.5768 151.978 32.2579 151.812 32.0444C151.645 31.8308 151.374 31.7226 151 31.7226C150.627 31.7216 150.357 31.8298 150.189 32.0444Z" fill="white"/>
<path d="M157 34.7438V31.2653C157 31.1891 157.025 31.126 157.076 31.0752C157.127 31.0244 157.19 31 157.269 31H160.449C160.522 31 160.585 31.0254 160.638 31.0783C160.689 31.1301 160.715 31.1921 160.715 31.2653V31.5276C160.715 31.5997 160.69 31.6628 160.641 31.7136C160.59 31.7654 160.529 31.7898 160.455 31.7898H158.066V32.4618H159.461C159.92 32.4618 160.292 32.5685 160.575 32.782C160.858 32.9954 161 33.3116 161 33.7324C161 34.1512 160.858 34.4684 160.574 34.6808C160.29 34.8943 159.918 35 159.461 35H157.254C157.181 35 157.119 34.9756 157.071 34.9268C157.025 34.877 157 34.816 157 34.7438ZM158.066 34.2102H159.461C159.777 34.2102 159.935 34.0506 159.935 33.7304C159.935 33.4102 159.777 33.2496 159.461 33.2496H158.066V34.2102Z" fill="white"/>
<path d="M164 34.7377V31.2653C164 31.1931 164.025 31.1301 164.075 31.0783C164.127 31.0254 164.187 31 164.258 31H164.769C164.839 31 164.899 31.0244 164.95 31.0752C164.999 31.126 165.024 31.186 165.024 31.2592V34.2102H166.213V31.2592C166.213 31.187 166.237 31.126 166.288 31.0752C166.339 31.0244 166.399 31 166.47 31H166.981C167.051 31 167.112 31.0254 167.161 31.0783C167.212 31.1301 167.236 31.1921 167.236 31.2653V34.2102H168.427V31.2592C168.427 31.187 168.452 31.126 168.501 31.0752C168.552 31.0244 168.612 31 168.683 31H169.195C169.266 31 169.326 31.0254 169.377 31.0783C169.426 31.1301 169.451 31.1921 169.451 31.2653V34.2102H169.746C169.816 34.2102 169.876 34.2356 169.926 34.2884C169.975 34.3403 170 34.4023 170 34.4755V34.7377C170 34.8099 169.975 34.8719 169.925 34.9238C169.875 34.9746 169.816 35 169.745 35H164.26C164.19 35 164.129 34.9746 164.077 34.9238C164.026 34.8719 164 34.8099 164 34.7377Z" fill="white"/>
<path d="M173 34.7297V31.2591C173 31.1869 173.027 31.126 173.083 31.0752C173.139 31.0244 173.205 31 173.284 31H176.72C176.797 31 176.863 31.0254 176.919 31.0782C176.973 31.13 177 31.192 177 31.2652V31.5273C177 31.5994 176.973 31.6624 176.919 31.7132C176.863 31.765 176.798 31.7894 176.72 31.7894H174.123V32.5982H176.359C176.436 32.5982 176.502 32.6236 176.558 32.6754C176.612 32.7262 176.639 32.7882 176.639 32.8613V33.1245C176.639 33.1966 176.612 33.2596 176.558 33.3114C176.502 33.3622 176.437 33.3876 176.359 33.3876H174.123V34.2106H176.713C176.79 34.2106 176.857 34.2349 176.909 34.2857C176.962 34.3355 176.988 34.3965 176.988 34.4696V34.7379C176.988 34.81 176.961 34.872 176.904 34.9238C176.849 34.9746 176.783 35 176.705 35H173.284C173.206 35 173.139 34.9746 173.083 34.9238C173.027 34.87 173 34.8059 173 34.7297Z" fill="white"/>
<path d="M180.476 34.5112C180.159 34.1853 180 33.6814 180 33.0005C180 32.3186 180.16 31.8157 180.48 31.4888C180.799 31.1629 181.278 31 181.916 31H182.493C182.883 31 183.229 31.1076 183.528 31.3249C183.829 31.5421 183.979 31.8388 183.979 32.216C183.979 32.3246 183.949 32.4031 183.886 32.4493C183.823 32.4956 183.764 32.5197 183.707 32.5197H183.391C183.229 32.5197 183.102 32.4182 183.013 32.216C182.887 31.9253 182.677 31.7795 182.382 31.7795H181.927C181.553 31.7795 181.299 31.866 181.166 32.039C181.033 32.211 180.967 32.5308 180.967 32.9975C180.967 33.4642 181.033 33.784 181.166 33.958C181.3 34.132 181.553 34.2185 181.927 34.2185H182.437C182.73 34.2185 182.94 34.0737 183.065 33.783C183.152 33.5808 183.275 33.4782 183.434 33.4782H183.739C183.769 33.4782 183.802 33.4853 183.837 33.4994C183.872 33.5135 183.908 33.5456 183.945 33.5959C183.981 33.6462 184 33.7086 184 33.784C184 34.1622 183.852 34.4589 183.554 34.6761C183.257 34.8924 182.914 35 182.526 35H181.901C181.268 35 180.793 34.8371 180.476 34.5112Z" fill="white"/>
<path d="M187 31.5276V31.2653C187 31.1891 187.024 31.126 187.074 31.0752C187.124 31.0244 187.185 31 187.261 31H190.739C190.814 31 190.877 31.0244 190.926 31.0752C190.976 31.126 191 31.188 191 31.2653V31.5276C191 31.6038 190.976 31.6668 190.926 31.7166C190.877 31.7654 190.815 31.7898 190.739 31.7898H189.516V34.7438C189.516 34.816 189.492 34.877 189.441 34.9268C189.391 34.9756 189.33 35 189.258 35H188.74C188.669 35 188.608 34.9756 188.557 34.9268C188.507 34.877 188.482 34.817 188.482 34.7438V31.7898H187.259C187.184 31.7898 187.122 31.7654 187.072 31.7166C187.024 31.6668 187 31.6038 187 31.5276Z" fill="white"/>
<path d="M194 31.2652C194 31.1931 194.025 31.1301 194.075 31.0782C194.126 31.0254 194.186 31 194.256 31H196.446C196.691 31 196.916 31.0345 197.118 31.1057C197.32 31.1748 197.492 31.2978 197.634 31.4736C197.776 31.6504 197.847 31.8679 197.847 32.1281C197.847 32.4136 197.725 32.6585 197.483 32.8638C197.83 33.0549 198.002 33.3648 198 33.7947C198 34.1778 197.862 34.4746 197.587 34.6839C197.311 34.8943 196.972 35 196.572 35H194.256C194.187 35 194.126 34.9746 194.075 34.9238C194.025 34.872 194 34.811 194 34.7378V31.2652ZM195.016 32.5335H196.458C196.57 32.5335 196.662 32.5 196.73 32.4309C196.797 32.3638 196.832 32.2673 196.832 32.1443C196.832 32.0224 196.797 31.9258 196.73 31.8567C196.662 31.7886 196.57 31.753 196.458 31.753H195.016V32.5335ZM195.016 34.2459H196.557C196.697 34.2459 196.803 34.2032 196.876 34.1179C196.948 34.0325 196.985 33.9157 196.985 33.7663C196.985 33.6169 196.947 33.5 196.874 33.4146C196.801 33.3293 196.694 33.2866 196.557 33.2866H195.016V34.2459Z" fill="white"/>
<path d="M202.509 34.5212C202.169 34.2023 202 33.6943 202 33C202 32.3057 202.17 31.7986 202.509 31.4788C202.848 31.1589 203.347 31 204 31C204.656 31 205.152 31.1599 205.491 31.4788C205.83 31.7977 206 32.3057 206 33C206 33.6943 205.83 34.2014 205.491 34.5212C205.152 34.8411 204.655 35 204 35C203.346 35 202.849 34.8401 202.509 34.5212ZM203.189 32.0444C203.021 32.2589 202.937 32.5778 202.937 33.001C202.937 33.4261 203.022 33.744 203.189 33.9566C203.357 34.1711 203.627 34.2774 204 34.2774C204.374 34.2774 204.645 34.1711 204.812 33.9566C204.979 33.7431 205.062 33.4252 205.062 33.001C205.062 32.5768 204.978 32.2579 204.812 32.0444C204.645 31.8308 204.374 31.7226 204 31.7226C203.627 31.7216 203.357 31.8298 203.189 32.0444Z" fill="white"/>
</g>
<defs>
<linearGradient id="paint0_linear_62_128" x1="33.1471" y1="30.8576" x2="17.4312" y2="3.36936" gradientUnits="userSpaceOnUse">
<stop stop-color="#007B8C"/>
<stop offset="0.3045" stop-color="#008FA4"/>
<stop offset="0.35" stop-color="#0091A5"/>
<stop offset="0.4058" stop-color="#0097AB"/>
<stop offset="0.4669" stop-color="#00A1B4"/>
<stop offset="0.5319" stop-color="#4EB0C1"/>
<stop offset="0.5993" stop-color="#8BC4D1"/>
<stop offset="0.6006" stop-color="#8CC5D2"/>
<stop offset="0.6581" stop-color="#7EBFCD"/>
<stop offset="0.7625" stop-color="#4FB0C1"/>
<stop offset="0.8073" stop-color="#2DA9BB"/>
<stop offset="0.986" stop-color="#008291"/>
</linearGradient>
<linearGradient id="paint1_linear_62_128" x1="-0.283717" y1="35.5008" x2="48.7166" y2="35.5008" gradientUnits="userSpaceOnUse">
<stop stop-color="#008092"/>
<stop offset="0.3045" stop-color="#008FA4"/>
<stop offset="0.35" stop-color="#0091A5"/>
<stop offset="0.4058" stop-color="#0097AB"/>
<stop offset="0.4669" stop-color="#00A1B4"/>
<stop offset="0.5319" stop-color="#4EB0C1"/>
<stop offset="0.5993" stop-color="#8BC4D1"/>
<stop offset="0.6006" stop-color="#8CC5D2"/>
<stop offset="0.6581" stop-color="#7EBFCD"/>
<stop offset="0.7625" stop-color="#4FB0C1"/>
<stop offset="0.8073" stop-color="#2DA9BB"/>
<stop offset="0.986" stop-color="#008291"/>
</linearGradient>
<clipPath id="clip0_62_128">
<rect width="206" height="48" fill="white"/>
</clipPath>
</defs>
</svg>
