<svg width="15" height="15" viewBox="0 0 15 15" fill="none" xmlns="http://www.w3.org/2000/svg">
<path d="M11.7249 9.25324C12.0642 9.3736 13.8808 10.2697 14.2468 10.4569C14.6128 10.6374 14.859 10.7311 14.9455 10.8982C15.0387 11.052 15.0387 11.7943 14.7326 12.6636C14.4265 13.5329 12.9559 14.322 12.2439 14.4289C11.0727 14.6028 10.1544 14.5159 7.81213 13.4995C4.1057 11.8879 1.69019 8.1432 1.50387 7.89578C1.3242 7.64837 0 5.88301 0 4.05747C0 2.23192 0.951563 1.33587 1.29093 0.9614C1.6303 0.593617 2.02956 0.5 2.27577 0.5C2.52198 0.5 2.76818 0.5 2.98112 0.513374C3.20737 0.526748 3.51346 0.426443 3.81291 1.14864C4.119 1.89089 4.85763 3.71643 4.95079 3.90366C5.04395 4.0909 5.10384 4.30488 4.98406 4.5523C4.27871 5.96994 3.52012 5.92313 3.89941 6.57845C5.33009 9.04594 6.7541 9.90187 8.9234 10.9918C9.28939 11.1791 9.50898 11.1456 9.72192 10.8982C9.94151 10.6441 10.6469 9.81494 10.8931 9.44047C11.1393 9.066 11.3855 9.12618 11.7249 9.25324Z" fill="white"/>
</svg>
