<svg width="24" height="24" viewBox="0 0 24 24" fill="none" xmlns="http://www.w3.org/2000/svg">
<path d="M11.9987 16.9999H12.0087M11.9987 9.99995V13.9999M6.41075 20.9999H17.5866C19.3683 20.9999 20.2591 20.9999 20.7816 20.6253C21.2375 20.2983 21.5352 19.7949 21.6019 19.2379C21.6784 18.5995 21.2491 17.8189 20.3905 16.2578L14.8026 6.09793C13.8884 4.43578 13.4313 3.6047 12.8273 3.32975C12.3009 3.09012 11.6965 3.09012 11.1701 3.32975C10.5661 3.6047 10.109 4.43578 9.19479 6.09793L3.60686 16.2578C2.74824 17.8189 2.31894 18.5995 2.39543 19.2379C2.46217 19.7949 2.75982 20.2983 3.21575 20.6253C3.73826 20.9999 4.62909 20.9999 6.41075 20.9999Z" stroke="#FF7176" stroke-linecap="round" stroke-linejoin="round"/>
</svg>
